<svg width="40" height="40" viewBox="0 0 40 40" fill="none" xmlns="http://www.w3.org/2000/svg">
<path fill-rule="evenodd" clip-rule="evenodd" d="M14.9437 0C11.3843 0 8.4988 2.8855 8.4988 6.4449V7.69839C6.3574 7.13889 3.9842 7.69809 2.3061 9.37619C-0.210801 11.8931 -0.210801 15.9738 2.3061 18.4907L3.1924 19.377C1.2826 20.4956 0 22.5691 0 24.9422C0 28.5016 2.8855 31.3871 6.4449 31.3871H7.6983C7.1388 33.5285 7.698 35.9017 9.3761 37.5797C11.893 40.0966 15.9737 40.0966 18.4906 37.5797L21.1342 34.9361C23.4663 32.604 24.5555 29.4996 24.4018 26.4462L28.4653 30.5096C30.9822 33.0265 35.063 33.0265 37.58 30.5096C40.097 27.9927 40.097 23.912 37.58 21.3952L36.694 20.509C38.603 19.3904 39.886 17.3169 39.886 14.9438C39.886 11.3844 37 8.49889 33.441 8.49889H32.1875C32.7471 6.3574 32.1878 3.9842 30.5097 2.3061C27.9929 -0.2108 23.9122 -0.2108 21.3953 2.3061L18.7516 4.9498C16.4195 7.28189 15.3303 10.3862 15.484 13.4396L11.4206 9.37619C11.4104 9.36609 11.4003 9.35599 11.3901 9.34589V6.4449C11.3901 4.4823 12.9811 2.8913 14.9437 2.8913C16.5378 2.8913 17.8867 3.9409 18.3371 5.3867C18.4706 5.2383 18.6088 5.0926 18.7516 4.9498L20.5089 3.1924C19.3903 1.2826 17.3168 0 14.9437 0ZM30.54 11.3902C30.5299 11.4003 30.5199 11.4105 30.5097 11.4206L26.4464 15.4839C29.3129 15.3397 32.2241 16.2907 34.499 18.3372C35.945 17.8868 36.995 16.5378 36.995 14.9438C36.995 12.9812 35.404 11.3902 33.441 11.3902H30.54ZM9.3457 28.4958C9.3558 28.4856 9.3659 28.4754 9.3761 28.4653L13.4394 24.4019C10.573 24.5462 7.6618 23.5951 5.3867 21.5488C3.9409 21.9992 2.8912 23.3481 2.8912 24.9422C2.8912 26.9048 4.4823 28.4958 6.4449 28.4958H9.3457ZM24.9422 39.886C22.569 39.886 20.4955 38.6033 19.3769 36.6935L21.1342 34.9361C21.2771 34.7933 21.4152 34.6476 21.5487 34.4992C21.9991 35.945 23.348 36.9947 24.9422 36.9947C26.9048 36.9947 28.4958 35.4037 28.4958 33.4411V30.5401C29.3286 31.362 30.3296 31.9112 31.3871 32.1875V33.4411C31.3871 37.0005 28.5016 39.886 24.9422 39.886ZM28.4653 4.3505C27.0775 2.9628 24.8275 2.9628 23.4397 4.3505L20.796 6.99419C17.8391 9.95119 17.5752 14.5814 20.0044 17.837L28.4653 9.37609C29.8531 7.98829 29.8531 5.7383 28.4653 4.3505ZM35.535 28.4652C36.923 27.0774 36.923 24.8274 35.535 23.4396L32.8916 20.7959C29.9347 17.839 25.3044 17.5751 22.0488 20.0043L30.5097 28.4652C31.8975 29.853 34.148 29.853 35.535 28.4652ZM16.4461 35.5353C15.0583 36.9231 12.8083 36.9231 11.4205 35.5353C10.0328 34.1475 10.0328 31.8975 11.4205 30.5097L19.8814 22.0488C22.3106 25.3044 22.0467 29.9347 19.0898 32.8916L16.4461 35.5353ZM4.3505 11.4206C2.9628 12.8084 2.9628 15.0584 4.3505 16.4462L6.9942 19.0899C9.9512 22.0468 14.5814 22.3107 17.837 19.8815L9.3761 11.4206C7.9883 10.0329 5.7383 10.0329 4.3505 11.4206Z" fill="#3D3A2C"/>
</svg>
